<svg viewBox="0 0 16 15" xmlns="http://www.w3.org/2000/svg" xmlns:xlink="http://www.w3.org/1999/xlink" width="16.000000" height="15.000000" fill="none" customFrame="#000000">
	<g id="icon check">
		<rect id="Rectangle 11" width="16.000000" height="15.000000" x="0.000000" y="0.000000" rx="2.000000" fill="rgb(33,150,243)" fill-opacity="0" />
		<rect id="Rectangle 11" width="15.000000" height="14.000000" x="0.500000" y="0.500000" rx="1.500000" stroke="rgb(255,255,255)" stroke-width="1" />
		<path id="Vector" d="M6.49574 10.3117L3.888 7.82401L3 8.66517L6.49574 12L14 4.84116L13.1182 4L6.49574 10.3117Z" fill="rgb(255,255,255)" fill-rule="nonzero" />
		<path id="Vector" d="M6.4958 10.0354L3.88849 7.54807L3.75046 7.67881L2.70972 8.66466L6.49574 12.2764L14.2897 4.84116L13.1183 3.72365L6.4958 10.0354ZM6.49574 10.3117L3.888 7.82401L3.14539 8.52746L3 8.66517L3.1449 8.8034L6.49574 12L13.8551 4.97937L14 4.84116L13.8551 4.70296L13.1182 4L6.49574 10.3117Z" fill="rgb(255,255,255)" fill-rule="evenodd" />
	</g>
</svg>
